# xmcd
#
# Track frame offsets: 
#        150
#        18521
#        36483
#        51463
#        65485
#        89486
#        100940
#        117208
#        127978
#        143124
#        160928
#        186817
#
# Disc length: 2734 seconds
#
# Revision: 0
# Processed by: cddbd v1.5.2PL0 Copyright (c) Steve Scherf et al.
# Submitted via: ExactAudioCopy v1.3
#
DISCID=aa0aac0c
DTITLE=Terry Allen And The Panhandle Mystery Band - Just Like Moby Dic
DTITLE=k
DYEAR=2020
DGENRE=Cabaret
TTITLE0=Houdini Didn't Like The Spiritualists
TTITLE1=Abandonitis
TTITLE2=Death Of The Last Stripper
TTITLE3=All That's Left Is Fare-Thee-Well
TTITLE4=Pirate Jenny
TTITLE5=American Childhood I: Civil Defense
TTITLE6=American Childhood II: Bad Kiss
TTITLE7=American Childhood III: Little Puppet Thing
TTITLE8=All These Blues Go Walkin' By
TTITLE9=City Of The Vampires
TTITLE10=Harmony Two
TTITLE11=Sailin' On Through
EXTD=
EXTT0=
EXTT1=
EXTT2=
EXTT3=
EXTT4=
EXTT5=
EXTT6=
EXTT7=
EXTT8=
EXTT9=
EXTT10=
EXTT11=
PLAYORDER=
